<svg width="151" height="35" viewBox="0 0 151 35" fill="none" xmlns="http://www.w3.org/2000/svg">
<g clip-path="url(#clip0_1_2)">
<rect width="151" height="35" fill="#2D5FDF"/>
<path d="M72.3164 9.22461L69.4922 17H68.3379L71.5898 8.46875H72.334L72.3164 9.22461ZM74.6836 17L71.8535 9.22461L71.8359 8.46875H72.5801L75.8438 17H74.6836ZM74.5371 13.8418V14.7676H69.7441V13.8418H74.5371ZM78 8V17H76.9102V8H78ZM80.918 8V17H79.8281V8H80.918ZM63.3984 26.752V29.875C63.293 30.0312 63.125 30.207 62.8945 30.4023C62.6641 30.5938 62.3457 30.7617 61.9395 30.9062C61.5371 31.0469 61.0176 31.1172 60.3809 31.1172C59.8613 31.1172 59.3828 31.0273 58.9453 30.8477C58.5117 30.6641 58.1348 30.3984 57.8145 30.0508C57.498 29.6992 57.252 29.2734 57.0762 28.7734C56.9043 28.2695 56.8184 27.6992 56.8184 27.0625V26.4004C56.8184 25.7637 56.8926 25.1953 57.041 24.6953C57.1934 24.1953 57.416 23.7715 57.709 23.4238C58.002 23.0723 58.3613 22.8066 58.7871 22.627C59.2129 22.4434 59.7012 22.3516 60.252 22.3516C60.9043 22.3516 61.4492 22.4648 61.8867 22.6914C62.3281 22.9141 62.6719 23.2227 62.918 23.6172C63.168 24.0117 63.3281 24.4609 63.3984 24.9648H62.2676C62.2168 24.6562 62.1152 24.375 61.9629 24.1211C61.8145 23.8672 61.6016 23.6641 61.3242 23.5117C61.0469 23.3555 60.6895 23.2773 60.252 23.2773C59.8574 23.2773 59.5156 23.3496 59.2266 23.4941C58.9375 23.6387 58.6992 23.8457 58.5117 24.1152C58.3242 24.3848 58.1836 24.7109 58.0898 25.0938C58 25.4766 57.9551 25.9082 57.9551 26.3887V27.0625C57.9551 27.5547 58.0117 27.9941 58.125 28.3809C58.2422 28.7676 58.4082 29.0977 58.623 29.3711C58.8379 29.6406 59.0938 29.8457 59.3906 29.9863C59.6914 30.127 60.0234 30.1973 60.3867 30.1973C60.7891 30.1973 61.1152 30.1641 61.3652 30.0977C61.6152 30.0273 61.8105 29.9453 61.9512 29.8516C62.0918 29.7539 62.1992 29.6621 62.2734 29.5762V27.666H60.2988V26.752H63.3984ZM68.8477 29.916V26.6523C68.8477 26.4023 68.7969 26.1855 68.6953 26.002C68.5977 25.8145 68.4492 25.6699 68.25 25.5684C68.0508 25.4668 67.8047 25.416 67.5117 25.416C67.2383 25.416 66.998 25.4629 66.791 25.5566C66.5879 25.6504 66.4277 25.7734 66.3105 25.9258C66.1973 26.0781 66.1406 26.2422 66.1406 26.418H65.0566C65.0566 26.1914 65.1152 25.9668 65.2324 25.7441C65.3496 25.5215 65.5176 25.3203 65.7363 25.1406C65.959 24.957 66.2246 24.8125 66.5332 24.707C66.8457 24.5977 67.1934 24.543 67.5762 24.543C68.0371 24.543 68.4434 24.6211 68.7949 24.7773C69.1504 24.9336 69.4277 25.1699 69.627 25.4863C69.8301 25.7988 69.9316 26.1914 69.9316 26.6641V29.6172C69.9316 29.8281 69.9492 30.0527 69.9844 30.291C70.0234 30.5293 70.0801 30.7344 70.1543 30.9062V31H69.0234C68.9688 30.875 68.9258 30.709 68.8945 30.502C68.8633 30.291 68.8477 30.0957 68.8477 29.916ZM69.0352 27.1562L69.0469 27.918H67.9512C67.6426 27.918 67.3672 27.9434 67.125 27.9941C66.8828 28.041 66.6797 28.1133 66.5156 28.2109C66.3516 28.3086 66.2266 28.4316 66.1406 28.5801C66.0547 28.7246 66.0117 28.8945 66.0117 29.0898C66.0117 29.2891 66.0566 29.4707 66.1465 29.6348C66.2363 29.7988 66.3711 29.9297 66.5508 30.0273C66.7344 30.1211 66.959 30.168 67.2246 30.168C67.5566 30.168 67.8496 30.0977 68.1035 29.957C68.3574 29.8164 68.5586 29.6445 68.707 29.4414C68.8594 29.2383 68.9414 29.041 68.9531 28.8496L69.416 29.3711C69.3887 29.5352 69.3145 29.7168 69.1934 29.916C69.0723 30.1152 68.9102 30.3066 68.707 30.4902C68.5078 30.6699 68.2695 30.8203 67.9922 30.9414C67.7188 31.0586 67.4102 31.1172 67.0664 31.1172C66.6367 31.1172 66.2598 31.0332 65.9355 30.8652C65.6152 30.6973 65.3652 30.4727 65.1855 30.1914C65.0098 29.9062 64.9219 29.5879 64.9219 29.2363C64.9219 28.8965 64.9883 28.5977 65.1211 28.3398C65.2539 28.0781 65.4453 27.8613 65.6953 27.6895C65.9453 27.5137 66.2461 27.3809 66.5977 27.291C66.9492 27.2012 67.3418 27.1562 67.7754 27.1562H69.0352ZM72.7148 25.9199V31H71.625V24.6602H72.6562L72.7148 25.9199ZM72.4922 27.5898L71.9883 27.5723C71.9922 27.1387 72.0488 26.7383 72.1582 26.3711C72.2676 26 72.4297 25.6777 72.6445 25.4043C72.8594 25.1309 73.127 24.9199 73.4473 24.7715C73.7676 24.6191 74.1387 24.543 74.5605 24.543C74.8574 24.543 75.1309 24.5859 75.3809 24.6719C75.6309 24.7539 75.8477 24.8848 76.0312 25.0645C76.2148 25.2441 76.3574 25.4746 76.459 25.7559C76.5605 26.0371 76.6113 26.377 76.6113 26.7754V31H75.5273V26.8281C75.5273 26.4961 75.4707 26.2305 75.3574 26.0312C75.248 25.832 75.0918 25.6875 74.8887 25.5977C74.6855 25.5039 74.4473 25.457 74.1738 25.457C73.8535 25.457 73.5859 25.5137 73.3711 25.627C73.1562 25.7402 72.9844 25.8965 72.8555 26.0957C72.7266 26.2949 72.6328 26.5234 72.5742 26.7812C72.5195 27.0352 72.4922 27.3047 72.4922 27.5898ZM76.5996 26.9922L75.873 27.2148C75.877 26.8672 75.9336 26.5332 76.043 26.2129C76.1562 25.8926 76.3184 25.6074 76.5293 25.3574C76.7441 25.1074 77.0078 24.9102 77.3203 24.7656C77.6328 24.6172 77.9902 24.543 78.3926 24.543C78.7324 24.543 79.0332 24.5879 79.2949 24.6777C79.5605 24.7676 79.7832 24.9062 79.9629 25.0938C80.1465 25.2773 80.2852 25.5137 80.3789 25.8027C80.4727 26.0918 80.5195 26.4355 80.5195 26.834V31H79.4297V26.8223C79.4297 26.4668 79.373 26.1914 79.2598 25.9961C79.1504 25.7969 78.9941 25.6582 78.791 25.5801C78.5918 25.498 78.3535 25.457 78.0762 25.457C77.8379 25.457 77.627 25.498 77.4434 25.5801C77.2598 25.6621 77.1055 25.7754 76.9805 25.9199C76.8555 26.0605 76.7598 26.2227 76.6934 26.4062C76.6309 26.5898 76.5996 26.7852 76.5996 26.9922ZM84.791 31.1172C84.3496 31.1172 83.9492 31.043 83.5898 30.8945C83.2344 30.7422 82.9277 30.5293 82.6699 30.2559C82.416 29.9824 82.2207 29.6582 82.084 29.2832C81.9473 28.9082 81.8789 28.498 81.8789 28.0527V27.8066C81.8789 27.291 81.9551 26.832 82.1074 26.4297C82.2598 26.0234 82.4668 25.6797 82.7285 25.3984C82.9902 25.1172 83.2871 24.9043 83.6191 24.7598C83.9512 24.6152 84.2949 24.543 84.6504 24.543C85.1035 24.543 85.4941 24.6211 85.8223 24.7773C86.1543 24.9336 86.4258 25.1523 86.6367 25.4336C86.8477 25.7109 87.0039 26.0391 87.1055 26.418C87.207 26.793 87.2578 27.2031 87.2578 27.6484V28.1348H82.5234V27.25H86.1738V27.168C86.1582 26.8867 86.0996 26.6133 85.998 26.3477C85.9004 26.082 85.7441 25.8633 85.5293 25.6914C85.3145 25.5195 85.0215 25.4336 84.6504 25.4336C84.4043 25.4336 84.1777 25.4863 83.9707 25.5918C83.7637 25.6934 83.5859 25.8457 83.4375 26.0488C83.2891 26.252 83.1738 26.5 83.0918 26.793C83.0098 27.0859 82.9688 27.4238 82.9688 27.8066V28.0527C82.9688 28.3535 83.0098 28.6367 83.0918 28.9023C83.1777 29.1641 83.3008 29.3945 83.4609 29.5938C83.625 29.793 83.8223 29.9492 84.0527 30.0625C84.2871 30.1758 84.5527 30.2324 84.8496 30.2324C85.2324 30.2324 85.5566 30.1543 85.8223 29.998C86.0879 29.8418 86.3203 29.6328 86.5195 29.3711L87.1758 29.8926C87.0391 30.0996 86.8652 30.2969 86.6543 30.4844C86.4434 30.6719 86.1836 30.8242 85.875 30.9414C85.5703 31.0586 85.209 31.1172 84.791 31.1172ZM92.2148 29.3184C92.2148 29.1621 92.1797 29.0176 92.1094 28.8848C92.043 28.748 91.9043 28.625 91.6934 28.5156C91.4863 28.4023 91.1738 28.3047 90.7559 28.2227C90.4043 28.1484 90.0859 28.0605 89.8008 27.959C89.5195 27.8574 89.2793 27.7344 89.0801 27.5898C88.8848 27.4453 88.7344 27.2754 88.6289 27.0801C88.5234 26.8848 88.4707 26.6562 88.4707 26.3945C88.4707 26.1445 88.5254 25.9082 88.6348 25.6855C88.748 25.4629 88.9062 25.2656 89.1094 25.0938C89.3164 24.9219 89.5645 24.7871 89.8535 24.6895C90.1426 24.5918 90.4648 24.543 90.8203 24.543C91.3281 24.543 91.7617 24.6328 92.1211 24.8125C92.4805 24.9922 92.7559 25.2324 92.9473 25.5332C93.1387 25.8301 93.2344 26.1602 93.2344 26.5234H92.1504C92.1504 26.3477 92.0977 26.1777 91.9922 26.0137C91.8906 25.8457 91.7402 25.707 91.541 25.5977C91.3457 25.4883 91.1055 25.4336 90.8203 25.4336C90.5195 25.4336 90.2754 25.4805 90.0879 25.5742C89.9043 25.6641 89.7695 25.7793 89.6836 25.9199C89.6016 26.0605 89.5605 26.209 89.5605 26.3652C89.5605 26.4824 89.5801 26.5879 89.6191 26.6816C89.6621 26.7715 89.7363 26.8555 89.8418 26.9336C89.9473 27.0078 90.0957 27.0781 90.2871 27.1445C90.4785 27.2109 90.7227 27.2773 91.0195 27.3438C91.5391 27.4609 91.9668 27.6016 92.3027 27.7656C92.6387 27.9297 92.8887 28.1309 93.0527 28.3691C93.2168 28.6074 93.2988 28.8965 93.2988 29.2363C93.2988 29.5137 93.2402 29.7676 93.123 29.998C93.0098 30.2285 92.8438 30.4277 92.625 30.5957C92.4102 30.7598 92.1523 30.8887 91.8516 30.9824C91.5547 31.0723 91.2207 31.1172 90.8496 31.1172C90.291 31.1172 89.8184 31.0176 89.4316 30.8184C89.0449 30.6191 88.752 30.3613 88.5527 30.0449C88.3535 29.7285 88.2539 29.3945 88.2539 29.043H89.3438C89.3594 29.3398 89.4453 29.5762 89.6016 29.752C89.7578 29.9238 89.9492 30.0469 90.1758 30.1211C90.4023 30.1914 90.627 30.2266 90.8496 30.2266C91.1465 30.2266 91.3945 30.1875 91.5938 30.1094C91.7969 30.0312 91.9512 29.9238 92.0566 29.7871C92.1621 29.6504 92.2148 29.4941 92.2148 29.3184Z" fill="white"/>
</g>
<defs>
<clipPath id="clip0_1_2">
<rect width="151" height="35" fill="white"/>
</clipPath>
</defs>
</svg>
